Coordinates
version=1
nRows=18
nColumns=22
inDegrees=yes

Units are S.I. units (second, meters, Newtons, ...)
If the header above contains a line with 'inDegrees', this indicates whether rotational values are in degrees (yes) or radians (no).

endheader
time	pelvis_tilt	pelvis_list	pelvis_rotation	pelvis_tx	pelvis_ty	pelvis_tz	hip_flexion_r	hip_adduction_r	hip_rotation_r	knee_angle_r	ankle_angle_r	subtalar_angle_r	hip_flexion_l	hip_adduction_l	hip_rotation_l	knee_angle_l	ankle_angle_l	subtalar_angle_l	lumbar_extension	lumbar_bending	lumbar_rotation
      1.10000000	      7.31741941	     -6.76513976	      5.74381399	      0.03824642	      0.94214651	     -0.11209367	     -6.47210476	     13.37163733	     -4.87496370	    -12.04183653	      9.38264923	     -0.87605866	     18.87856237	     -9.93307811	     -2.82076282	    -55.32327264	     16.56005722	    -16.79583785	    -14.25715870	      8.03472138	     -5.14720635
      1.11000000	      7.29538405	     -6.70919128	      5.27953446	      0.04828224	      0.94170869	     -0.11190403	     -7.47073105	     13.29560333	     -4.33799057	    -11.55494376	      9.64900776	     -0.96487447	     19.59620599	     -9.69487378	     -3.31218272	    -53.14345338	     16.70278439	    -16.79639798	    -14.31855604	      7.89123152	     -4.73206747
      1.12000000	      7.30990754	     -6.67919540	      4.83865851	      0.05836425	      0.94110139	     -0.11179355	     -8.48978693	     13.23406181	     -3.82247313	    -11.10333645	      9.91301043	     -1.09224552	     20.19748348	     -9.49071410	     -3.81103128	    -50.81745800	     16.68312849	    -16.62292515	    -14.41552478	      7.79206907	     -4.33431783
      1.13000000	      7.24429791	     -6.70008961	      4.35876144	      0.06842952	      0.94013444	     -0.11164396	     -9.34454674	     13.19556215	     -3.30355022	    -10.80292419	     10.28286258	     -1.14735650	     20.82779272	     -9.36429493	     -4.38349584	    -48.39713913	     16.44658517	    -16.36418452	    -14.42419425	      7.74109963	     -3.84993538
      1.14000000	      7.24697137	     -6.73388381	      3.92238334	      0.07856647	      0.93908189	     -0.11156071	    -10.28051599	     13.17044938	     -2.81023384	    -10.49413326	     10.60833232	     -1.23975563	     21.29858552	     -9.25576687	     -4.96479104	    -45.84023733	     16.04611501	    -15.71644401	    -14.50442278	      7.71494990	     -3.42471506
      1.15000000	      7.19866582	     -6.80391786	      3.46999729	      0.08870912	      0.93775069	     -0.11146734	    -11.10406781	     13.16118930	     -2.33972404	    -10.30056724	     11.00681255	     -1.28873655	     21.76402934	     -9.20444094	     -5.62749427	    -43.21333706	     15.42309251	    -14.98013294	    -14.52933156	      7.72539822	     -2.95567618
      1.16000000	      7.15275851	     -6.89697463	      3.03830814	      0.09889489	      0.93624799	     -0.11141145	    -11.91071959	     13.16688421	     -1.92188929	    -10.14633387	     11.40657090	     -1.33267858	     22.16092505	     -9.18908154	     -6.36366345	    -40.52122909	     14.57693689	    -14.02264355	    -14.55436513	      7.76679699	     -2.50772632
      1.17000000	      7.10781823	     -7.00359083	      2.60697020	      0.10911520	      0.93458785	     -0.11138310	    -12.69050296	     13.17293410	     -1.52812587	    -10.05407320	     11.84361548	     -1.35728328	     22.47921211	     -9.19096017	     -7.17266664	    -37.77674246	     13.62763966	    -13.03219517	    -14.58482919	      7.82508193	     -2.04336692
      1.18000000	      7.06272998	     -7.12355788	      2.20457287	      0.11942035	      0.93277525	     -0.11143745	    -13.47128618	     13.18409906	     -1.20681278	     -9.96206927	     12.27027490	     -1.37548112	     22.74081005	     -9.20640671	     -8.06749750	    -35.03548071	     12.53917973	    -11.89952856	    -14.60532206	      7.90925144	     -1.61224783
      1.19000000	      7.02831148	     -7.23583728	      1.80505562	      0.12978815	      0.93085729	     -0.11154644	    -14.24930124	     13.17389358	     -0.91029089	     -9.90955159	     12.72905976	     -1.37494880	     22.91584182	     -9.19550883	     -8.99957071	    -32.30010807	     11.47724885	    -10.81273985	    -14.63905961	      7.98705970	     -1.17670635
      1.20000000	      6.99773146	     -7.34019033	      1.41074514	      0.14022995	      0.92883320	     -0.11171071	    -15.00881398	     13.14189801	     -0.66173425	     -9.91082766	     13.21200291	     -1.35732808	     23.02613846	     -9.15262272	     -9.93624360	    -29.62119963	     10.50346424	     -9.78845760	    -14.67868863	      8.05786396	     -0.75476643
      1.21000000	      6.96751332	     -7.43843155	      1.03217509	      0.15077515	      0.92670541	     -0.11196277	    -15.75937324	     13.08876211	     -0.50120380	     -9.93953289	     13.71054967	     -1.32256262	     23.10399912	     -9.07817109	    -10.84797342	    -27.07065694	      9.68037311	     -8.81072276	    -14.70840967	      8.12791910	     -0.32475406
      1.22000000	      6.91397293	     -7.52019465	      0.68670546	      0.16144048	      0.92446704	     -0.11231827	    -16.49426405	     13.01490202	     -0.34750500	     -9.95649522	     14.13930029	     -1.26560152	     23.18536361	     -8.94639297	    -11.63849744	    -24.68464274	      9.04274314	     -7.76332156	    -14.69870225	      8.19145943	      0.01306006
      1.23000000	      6.86077718	     -7.58903670	      0.33448910	      0.17219851	      0.92217912	     -0.11269725	    -17.19610729	     12.91021815	     -0.24579568	    -10.04965982	     14.58796591	     -1.17788417	     23.24761061	     -8.78882542	    -12.31427980	    -22.51270152	      8.69540220	     -6.80227892	    -14.68905743	      8.23679118	      0.36782162
      1.24000000	      6.80703948	     -7.64761282	     -0.02333719	      0.18304965	      0.91987963	     -0.11309565	    -17.86136079	     12.77815912	     -0.16338397	    -10.22166359	     15.01776309	     -1.05391892	     23.30032152	     -8.61951663	    -12.84559639	    -20.59891583	      8.59608733	     -5.86108745	    -14.67986987	      8.26995857	      0.70882906
      1.25000000	      6.73160107	     -7.67810370	     -0.36779321	      0.19406707	      0.91757082	     -0.11350237	    -18.50583273	     12.61152772	     -0.06350137	    -10.39719314	     15.37163634	     -0.87207716	     23.37438833	     -8.42941091	    -13.21209476	    -18.99010080	      8.69358917	     -4.87241602	    -14.62529738	      8.26703554	      1.00416926
      1.26000000	      6.65282432	     -7.67760742	     -0.70931991	      0.20523951	      0.91532610	     -0.11390153	    -19.12465295	     12.40246098	      0.05354940	    -10.62303720	     15.68257919	     -0.61977815	     23.44983578	     -8.23420806	    -13.43595731	    -17.72293263	      8.90268683	     -3.93563967	    -14.55278824	      8.22281718	      1.27333407
      1.27000000	      6.57883560	     -7.64349591	     -1.04540345	      0.21654604	      0.91320965	     -0.11430528	    -19.71332312	     12.14766175	      0.19477337	    -10.91688894	     15.90705206	     -0.28251498	     23.51647000	     -8.03651206	    -13.51176783	    -16.81530956	      9.11805740	     -3.13529503	    -14.47490192	      8.14048814	      1.49790606
